<mxfile host="65bd71144e">
    <diagram id="dP2pN3_JtfydULPp_apn" name="Page-1">
        <mxGraphModel dx="1494" dy="1879" grid="1" gridSize="10" guides="1" tooltips="1" connect="1" arrows="1" fold="1" page="1" pageScale="1" pageWidth="850" pageHeight="1100" math="0" shadow="0">
            <root>
                <mxCell id="0"/>
                <mxCell id="1" parent="0"/>
                <mxCell id="73" value="" style="group" parent="1" vertex="1" connectable="0">
                    <mxGeometry x="-20" y="-20" width="1575" height="1020" as="geometry"/>
                </mxCell>
                <mxCell id="25" value="" style="rounded=1;whiteSpace=wrap;html=1;dashed=1;fontSize=16;fontStyle=1;strokeWidth=5;" parent="73" vertex="1">
                    <mxGeometry x="320" y="140" width="290" height="880" as="geometry"/>
                </mxCell>
                <mxCell id="6" value="" style="edgeStyle=none;html=1;fontSize=16;fontStyle=1;strokeWidth=5;flowAnimation=1;" parent="73" source="4" target="5" edge="1">
                    <mxGeometry relative="1" as="geometry"/>
                </mxCell>
                <mxCell id="4" value="Tokenized Text" style="html=1;dashed=0;whiteSpace=wrap;shape=mxgraph.dfd.start;fontSize=16;fontStyle=1;strokeWidth=5;" parent="73" vertex="1">
                    <mxGeometry x="65" y="600" width="190" height="60" as="geometry"/>
                </mxCell>
                <mxCell id="8" value="" style="edgeStyle=none;html=1;fontSize=16;fontStyle=1;strokeWidth=5;flowAnimation=1;" parent="73" source="5" target="7" edge="1">
                    <mxGeometry relative="1" as="geometry"/>
                </mxCell>
                <mxCell id="5" value="Token Embedding" style="html=1;dashed=0;whiteSpace=wrap;shape=mxgraph.dfd.start;fontSize=16;fontStyle=1;strokeWidth=5;" parent="73" vertex="1">
                    <mxGeometry x="65" y="490" width="190" height="60" as="geometry"/>
                </mxCell>
                <mxCell id="7" value="Positional Embedding" style="html=1;dashed=0;whiteSpace=wrap;shape=mxgraph.dfd.start;fontSize=16;fontStyle=1;strokeWidth=5;" parent="73" vertex="1">
                    <mxGeometry x="65" y="380" width="190" height="60" as="geometry"/>
                </mxCell>
                <mxCell id="11" value="" style="edgeStyle=none;html=1;fontSize=16;fontStyle=1;strokeWidth=5;flowAnimation=1;" parent="73" source="9" target="10" edge="1">
                    <mxGeometry relative="1" as="geometry"/>
                </mxCell>
                <mxCell id="9" value="Layer Norm 1" style="html=1;dashed=0;whiteSpace=wrap;shape=mxgraph.dfd.start;fontSize=16;fontStyle=1;strokeWidth=5;" parent="73" vertex="1">
                    <mxGeometry x="360" y="840" width="190" height="60" as="geometry"/>
                </mxCell>
                <mxCell id="13" value="" style="edgeStyle=none;html=1;fontSize=16;fontStyle=1;strokeWidth=5;flowAnimation=1;" parent="73" source="10" target="12" edge="1">
                    <mxGeometry relative="1" as="geometry"/>
                </mxCell>
                <mxCell id="10" value="Multi head attention" style="html=1;dashed=0;whiteSpace=wrap;shape=mxgraph.dfd.start;fontSize=16;fontStyle=1;fillColor=#dae8fc;gradientColor=#7ea6e0;strokeColor=#6c8ebf;strokeWidth=5;" parent="73" vertex="1">
                    <mxGeometry x="360" y="730" width="190" height="60" as="geometry"/>
                </mxCell>
                <mxCell id="15" value="" style="edgeStyle=none;html=1;fontSize=16;fontStyle=1;strokeWidth=5;flowAnimation=1;" parent="73" source="12" target="14" edge="1">
                    <mxGeometry relative="1" as="geometry"/>
                </mxCell>
                <mxCell id="12" value="Dropout" style="html=1;dashed=0;whiteSpace=wrap;shape=mxgraph.dfd.start;fontSize=16;fontStyle=1;strokeWidth=5;" parent="73" vertex="1">
                    <mxGeometry x="360" y="620" width="190" height="60" as="geometry"/>
                </mxCell>
                <mxCell id="21" value="" style="edgeStyle=none;html=1;fontSize=16;fontStyle=1;strokeWidth=5;flowAnimation=1;" parent="73" source="14" target="16" edge="1">
                    <mxGeometry relative="1" as="geometry"/>
                </mxCell>
                <mxCell id="14" value="+" style="shape=ellipse;html=1;dashed=0;whiteSpace=wrap;aspect=fixed;perimeter=ellipsePerimeter;fontSize=16;fontStyle=1;strokeWidth=5;" parent="73" vertex="1">
                    <mxGeometry x="440" y="543" width="30" height="30" as="geometry"/>
                </mxCell>
                <mxCell id="18" value="" style="edgeStyle=none;html=1;fontSize=16;fontStyle=1;strokeWidth=5;flowAnimation=1;" parent="73" source="16" target="17" edge="1">
                    <mxGeometry relative="1" as="geometry"/>
                </mxCell>
                <mxCell id="16" value="Layer Norm 2" style="html=1;dashed=0;whiteSpace=wrap;shape=mxgraph.dfd.start;fontSize=16;fontStyle=1;strokeWidth=5;" parent="73" vertex="1">
                    <mxGeometry x="360" y="442" width="190" height="60" as="geometry"/>
                </mxCell>
                <mxCell id="20" value="" style="edgeStyle=none;html=1;fontSize=16;fontStyle=1;strokeWidth=5;flowAnimation=1;" parent="73" source="17" target="19" edge="1">
                    <mxGeometry relative="1" as="geometry"/>
                </mxCell>
                <mxCell id="17" value="Feed forward NN" style="html=1;dashed=0;whiteSpace=wrap;shape=mxgraph.dfd.start;fontSize=16;fontStyle=1;strokeWidth=5;" parent="73" vertex="1">
                    <mxGeometry x="360" y="340" width="190" height="60" as="geometry"/>
                </mxCell>
                <mxCell id="24" style="edgeStyle=none;html=1;entryX=0.5;entryY=1;entryDx=0;entryDy=0;fontSize=16;fontStyle=1;strokeWidth=5;flowAnimation=1;" parent="73" source="19" target="22" edge="1">
                    <mxGeometry relative="1" as="geometry"/>
                </mxCell>
                <mxCell id="19" value="Dropout" style="html=1;dashed=0;whiteSpace=wrap;shape=mxgraph.dfd.start;fontSize=16;fontStyle=1;strokeWidth=5;" parent="73" vertex="1">
                    <mxGeometry x="360" y="230" width="190" height="60" as="geometry"/>
                </mxCell>
                <mxCell id="22" value="+" style="shape=ellipse;html=1;dashed=0;whiteSpace=wrap;aspect=fixed;perimeter=ellipsePerimeter;fontSize=16;fontStyle=1;strokeWidth=5;" parent="73" vertex="1">
                    <mxGeometry x="440" y="160" width="30" height="30" as="geometry"/>
                </mxCell>
                <mxCell id="26" value="Final Layer Norm" style="html=1;dashed=0;whiteSpace=wrap;shape=mxgraph.dfd.start;fontSize=16;fontStyle=1;strokeWidth=5;" parent="73" vertex="1">
                    <mxGeometry x="660" y="600" width="190" height="60" as="geometry"/>
                </mxCell>
                <mxCell id="27" value="Output Layer" style="html=1;dashed=0;whiteSpace=wrap;shape=mxgraph.dfd.start;fontSize=16;fontStyle=1;strokeWidth=5;" parent="73" vertex="1">
                    <mxGeometry x="660" y="490" width="190" height="60" as="geometry"/>
                </mxCell>
                <mxCell id="28" style="edgeStyle=none;html=1;entryX=0.5;entryY=1;entryDx=0;entryDy=0;entryPerimeter=0;fontSize=16;fontStyle=1;strokeWidth=5;flowAnimation=1;" parent="73" source="26" target="27" edge="1">
                    <mxGeometry relative="1" as="geometry"/>
                </mxCell>
                <mxCell id="31" value="Logists Matrix" style="html=1;dashed=0;whiteSpace=wrap;shape=mxgraph.dfd.start;fontSize=16;fontStyle=1;strokeWidth=5;" parent="73" vertex="1">
                    <mxGeometry x="650" y="380" width="190" height="60" as="geometry"/>
                </mxCell>
                <mxCell id="32" style="edgeStyle=none;html=1;entryX=0.553;entryY=0.967;entryDx=0;entryDy=0;entryPerimeter=0;fontSize=16;fontStyle=1;strokeWidth=5;flowAnimation=1;" parent="73" source="27" target="31" edge="1">
                    <mxGeometry relative="1" as="geometry"/>
                </mxCell>
                <mxCell id="36" value="" style="endArrow=classic;html=1;exitX=0.479;exitY=0.002;exitDx=0;exitDy=0;entryX=0.5;entryY=0.5;entryDx=0;entryDy=30;entryPerimeter=0;fontSize=16;fontStyle=1;strokeWidth=5;flowAnimation=1;exitPerimeter=0;" parent="73" source="25" target="26" edge="1">
                    <mxGeometry width="50" height="50" relative="1" as="geometry">
                        <mxPoint x="400" y="160" as="sourcePoint"/>
                        <mxPoint x="700" y="660" as="targetPoint"/>
                        <Array as="points">
                            <mxPoint x="460" y="100"/>
                            <mxPoint x="635" y="100"/>
                            <mxPoint x="635" y="370"/>
                            <mxPoint x="635" y="750"/>
                            <mxPoint x="755" y="750"/>
                        </Array>
                    </mxGeometry>
                </mxCell>
                <mxCell id="37" value="" style="endArrow=classic;html=1;fontSize=16;fontStyle=1;strokeWidth=5;flowAnimation=1;exitX=0.5;exitY=0.5;exitDx=0;exitDy=-30;exitPerimeter=0;entryX=0;entryY=0.5;entryDx=0;entryDy=0;entryPerimeter=0;" parent="73" source="39" target="9" edge="1">
                    <mxGeometry width="50" height="50" relative="1" as="geometry">
                        <mxPoint x="165" y="250" as="sourcePoint"/>
                        <mxPoint x="350" y="870" as="targetPoint"/>
                        <Array as="points">
                            <mxPoint x="160" y="210"/>
                            <mxPoint x="275" y="210"/>
                            <mxPoint x="275" y="330"/>
                            <mxPoint x="275" y="870"/>
                        </Array>
                    </mxGeometry>
                </mxCell>
                <mxCell id="38" value="TRANSFORMER BLOCK" style="text;html=1;align=center;verticalAlign=middle;whiteSpace=wrap;rounded=0;strokeWidth=2;fontSize=19;fontStyle=1" parent="73" vertex="1">
                    <mxGeometry x="425" y="940" width="60" height="30" as="geometry"/>
                </mxCell>
                <mxCell id="39" value="Input Embedding" style="html=1;dashed=0;whiteSpace=wrap;shape=mxgraph.dfd.start;fontSize=16;fontStyle=1;strokeWidth=5;" parent="73" vertex="1">
                    <mxGeometry x="65" y="270" width="190" height="60" as="geometry"/>
                </mxCell>
                <mxCell id="40" style="edgeStyle=none;html=1;entryX=0.5;entryY=0.5;entryDx=0;entryDy=30;entryPerimeter=0;strokeWidth=5;flowAnimation=1;" parent="73" source="7" target="39" edge="1">
                    <mxGeometry relative="1" as="geometry"/>
                </mxCell>
            </root>
        </mxGraphModel>
    </diagram>
</mxfile>